<!--?xml version="1.0" standalone="no"?-->
              <svg id="sw-js-blob-svg" viewBox="0 0 100 100" xmlns="http://www.w3.org/2000/svg" version="1.1">
                    <defs> 
                        <linearGradient id="sw-gradient" x1="0" x2="1" y1="1" y2="0">
                            <stop id="stop1" stop-color="rgba(248, 117, 55, 1)" offset="0%"></stop>
                            <stop id="stop2" stop-color="rgba(251, 168, 31, 1)" offset="100%"></stop>
                        </linearGradient>
                    </defs>
                <path fill="url(#sw-gradient)" d="M18.5,-25C23.5,-17.7,27,-11.6,30.3,-3.7C33.7,4.2,37,13.7,34.8,22.4C32.5,31,24.7,38.7,16.1,40C7.5,41.3,-1.9,36.1,-10.9,32C-19.9,27.8,-28.6,24.7,-32.7,18.5C-36.8,12.2,-36.3,3,-35,-6.5C-33.7,-15.9,-31.5,-25.5,-25.6,-32.6C-19.6,-39.7,-9.8,-44.4,-1.6,-42.5C6.7,-40.7,13.4,-32.3,18.5,-25Z" width="100%" height="100%" transform="translate(50 50)" style="transition: all 0.3s ease 0s;" stroke-width="0"></path>
              </svg>