<svg width="23.999999999999996" height="23.999999999999996" xmlns="http://www.w3.org/2000/svg">

 <g>
  <title>background</title>
  <rect fill="none" id="canvas_background" height="402" width="582" y="-1" x="-1"/>
 </g>
 <g>
  <title>Layer 1</title>
  <path stroke-width="3" stroke="#333333" fill="none" id="svg_1" d="m21,11.5a8.38,8.38 0 0 1 -0.9,3.8a8.5,8.5 0 0 1 -7.6,4.7a8.38,8.38 0 0 1 -3.8,-0.9l-5.7,1.9l1.9,-5.7a8.38,8.38 0 0 1 -0.9,-3.8a8.5,8.5 0 0 1 4.7,-7.6a8.38,8.38 0 0 1 3.8,-0.9l0.5,0a8.48,8.48 0 0 1 8,8l0,0.5z"/>
 </g>
</svg>